<?xml version="1.0" encoding="UTF-8"?>
<svg id="Layer_1" data-name="Layer 1" xmlns="http://www.w3.org/2000/svg" viewBox="0 0 250 250">
  <defs>
    <style>
      .cls-1 {
        fill: #fff;
      }

      .cls-2 {
        fill: #7496ff;
      }

      .cls-2, .cls-3, .cls-4, .cls-5 {
        stroke: #000;
        stroke-miterlimit: 10;
      }

      .cls-3 {
        fill: #a796ff;
      }

      .cls-6 {
        fill: #3683ad;
      }

      .cls-7 {
        fill: #0009c9;
      }

      .cls-5 {
        fill: #746aff;
      }
    </style>
  </defs>
  <g>
    <circle class="cls-6" cx="125" cy="125" r="124.5"/>
    <path d="M125,1c33.12,0,64.26,12.9,87.68,36.32,23.42,23.42,36.32,54.56,36.32,87.68s-12.9,64.26-36.32,87.68-54.56,36.32-87.68,36.32-64.26-12.9-87.68-36.32C13.9,189.26,1,158.12,1,125S13.9,60.74,37.32,37.32C60.74,13.9,91.88,1,125,1m0-1C55.96,0,0,55.96,0,125s55.96,125,125,125,125-55.96,125-125S194.04,0,125,0h0Z"/>
  </g>
  <g>
    <path class="cls-1" d="M125.5,179.5c-56.32,0-96.72-54.65-97.08-55.2-.03-.05-.3-.56,.74-2.49,2.85-5.28,14.24-18.24,32.66-30.54,14.78-9.87,37.82-21.63,63.68-21.63,30.74,0,56.21,14.86,68.65,23.71,18.5,13.16,28.35,26.58,28.35,31.22s-9.85,18.06-28.35,31.22c-12.45,8.86-37.92,23.71-68.65,23.71Z"/>
    <path d="M125.5,70.14c30.6,0,55.97,14.8,68.36,23.62,18.12,12.89,28.14,26.4,28.14,30.81s-10.02,17.92-28.14,30.81c-12.4,8.82-37.76,23.62-68.36,23.62-27.84,0-51.91-14.03-67.21-25.79-17.09-13.15-27.9-26.85-29.43-29.14-.06-.42,.51-2.33,3.85-6.53,6.07-7.64,18.45-19.38,35.01-29.43,13.49-8.19,34.47-17.96,57.78-17.96m0-1c-53.85,0-100.5,50.86-97.5,55.43,3,4.57,43.65,55.43,97.5,55.43s97.5-45,97.5-55.43-43.65-55.43-97.5-55.43h0Z"/>
  </g>
  <g>
    <circle class="cls-7" cx="125" cy="125" r="35.5"/>
    <path d="M125,90c19.3,0,35,15.7,35,35s-15.7,35-35,35-35-15.7-35-35,15.7-35,35-35m0-1c-19.88,0-36,16.12-36,36s16.12,36,36,36,36-16.12,36-36-16.12-36-36-36h0Z"/>
  </g>
  <path class="cls-2" d="M138.5,82.5l-13.5,42.5,46.5-15.5s-8-27-33-27Z"/>
  <path class="cls-4" d="M30.82,93.08c1.3-1.45,105.33-80.95,181.9-3.17-2.54-4.27-76.59-55.9-181.9,3.17Z"/>
  <path class="cls-3" d="M165,112.81l-39.77,12.86,37.16,27.02s16.23-20.81,2.61-39.88Z"/>
  <path class="cls-5" d="M154.16,146.55l-29.66-21.02,.54,38.47s22.94,1.07,29.12-17.45Z"/>
</svg>