<?xml version="1.0" encoding="utf-8"?>
<!-- Generator: Adobe Illustrator 26.5.0, SVG Export Plug-In . SVG Version: 6.00 Build 0)  -->
<svg version="1.1" id="Layer_1" xmlns="http://www.w3.org/2000/svg" xmlns:xlink="http://www.w3.org/1999/xlink" x="0px" y="0px"
	 viewBox="0 0 250 250" style="enable-background:new 0 0 250 250;" xml:space="preserve">
<style type="text/css">
	.st0{fill:#3683AD;}
	.st1{fill:#FFFFFF;stroke:#000000;stroke-miterlimit:10;}
</style>
<g id="Layer_1_00000155124949596874430750000003812161885883569827_">
	<g>
		<circle class="st0" cx="124.57" cy="125" r="124.5"/>
		<path d="M124.57,1c33.12,0,64.26,12.9,87.68,36.32s36.32,54.56,36.32,87.68s-12.9,64.26-36.32,87.68S157.69,249,124.57,249
			s-64.26-12.9-87.68-36.32S0.57,158.12,0.57,125s12.9-64.26,36.32-87.68S91.45,1,124.57,1 M124.57,0c-69.04,0-125,55.96-125,125
			s55.96,125,125,125s125-55.96,125-125S193.61,0,124.57,0L124.57,0z"/>
	</g>
</g>
<path class="st1" d="M90,208H74V58c1-16,15-15,16,0V208z"/>
<path class="st1" d="M183,121H90c0,0-1-64,0-64s93,0,93,0V121z"/>
<g>
	<path d="M124,92H92.07c0.58-4.47,7.51-8,15.96-8S123.42,87.53,124,92z"/>
	<circle cx="108.04" cy="74.14" r="7.39"/>
</g>
<g>
	<path d="M155,103.94h-37.77c0.69-5.29,8.89-9.47,18.89-9.47C146.11,94.47,154.31,98.65,155,103.94z"/>
	<circle cx="136.11" cy="82.82" r="8.74"/>
</g>
<g>
	<path d="M180.16,91.94h-31.93c0.58-4.47,7.51-8,15.96-8C172.64,83.94,179.57,87.47,180.16,91.94z"/>
	<circle cx="164.19" cy="74.09" r="7.39"/>
</g>
</svg>
