<?xml version="1.0" encoding="utf-8"?>
<!-- Generator: Adobe Illustrator 26.5.0, SVG Export Plug-In . SVG Version: 6.00 Build 0)  -->
<svg version="1.1" id="Layer_1" xmlns="http://www.w3.org/2000/svg" xmlns:xlink="http://www.w3.org/1999/xlink" x="0px" y="0px"
	 viewBox="0 0 250 250" style="enable-background:new 0 0 250 250;" xml:space="preserve">
<style type="text/css">
	.st0{fill:#29ABE2;}
	.st1{fill:#39B54A;}
	.st2{fill:#93278F;}
	.st3{fill:#FBB03B;}
	.st4{fill:#D9E021;}
</style>
<g>
	<circle class="st0" cx="124.57" cy="125" r="124.5"/>
	<path d="M124.57,1c33.12,0,64.26,12.9,87.68,36.32s36.32,54.56,36.32,87.68s-12.9,64.26-36.32,87.68S157.69,249,124.57,249
		s-64.26-12.9-87.68-36.32S0.57,158.12,0.57,125s12.9-64.26,36.32-87.68S91.45,1,124.57,1 M124.57,0c-69.04,0-125,55.96-125,125
		s55.96,125,125,125s125-55.96,125-125S193.61,0,124.57,0L124.57,0z"/>
</g>
<g>
	<rect x="47" y="61" class="st1" width="32" height="129"/>
	<path d="M77,63v125H49V63H77 M81,59H45v133h36V59L81,59z"/>
</g>
<g>
	<rect x="88" y="97" class="st2" width="32" height="93"/>
	<path d="M118,99v89H90V99H118 M122,95H86v97h36V95L122,95z"/>
</g>
<g>
	<rect x="129" y="77" class="st3" width="32" height="113"/>
	<path d="M159,79v109h-28V79H159 M163,75h-36v117h36V75L163,75z"/>
</g>
<g>
	<rect x="170.57" y="117" class="st4" width="32" height="73"/>
	<path d="M200.57,119v69h-28v-69H200.57 M204.57,115h-36v77h36V115L204.57,115z"/>
</g>
</svg>
