<?xml version="1.0" encoding="utf-8"?>
<!-- Generator: Adobe Illustrator 26.5.0, SVG Export Plug-In . SVG Version: 6.00 Build 0)  -->
<svg version="1.1" id="Layer_1" xmlns="http://www.w3.org/2000/svg" xmlns:xlink="http://www.w3.org/1999/xlink" x="0px" y="0px"
	 viewBox="0 0 250 250" style="enable-background:new 0 0 250 250;" xml:space="preserve">
<style type="text/css">
	.st0{fill:#3683AD;}
	.st1{enable-background:new    ;}
</style>
<g id="Layer_1_00000119821131115453676770000012399750042070667911_">
	<g id="Layer_1_00000155124949596874430750000003812161885883569827_">
		<g>
			<circle class="st0" cx="125.6" cy="125" r="124.5"/>
			<path d="M125.6,1c33.1,0,64.3,12.9,87.7,36.3s36.3,54.6,36.3,87.7s-12.9,64.3-36.3,87.7S158.7,249,125.6,249
				s-64.3-12.9-87.7-36.3S1.6,158.1,1.6,125s12.9-64.3,36.3-87.7S92.4,1,125.6,1 M125.6,0c-69,0-125,56-125,125s56,125,125,125
				s125-56,125-125S194.6,0,125.6,0L125.6,0z"/>
		</g>
	</g>
</g>
<g class="st1">
	<path d="M144.2,73.5c-8.8,0-16.1,2.1-22,6.3c-3.5,2.5-6.7,6-9.6,10.6c-2.9,4.7-4.6,9.2-5.2,13.5h53.3l-2.1,10.5h-52.4
		c-0.1,1.1-0.1,2.1-0.1,3.1c0,4,0,6.4,0.1,7.2h50.3l-2.2,10.5h-46.5c2.2,11.9,7.4,20.4,15.8,25.4c6,3.6,12.5,5.4,19.5,5.4
		c9.7,0,17.3-2.6,22.8-7.7v16.1c-6.5,3-13.7,4.5-21.6,4.5c-23.5,0-39.5-9.8-47.7-29.4c-1.7-4-3.1-8.8-4.3-14.4h-12l2.2-10.5h8.2
		c-0.2-2.2-0.2-4.6-0.2-7.1c0-1,0-2.1,0.1-3.2H80.3l2.2-10.5h9.1c3.2-17,11.6-29.2,25.2-36.6c8.4-4.6,17.6-6.9,27.7-6.9
		c9.7,0,17.8,2.1,24.5,6.3l-3.1,14.5C159.5,76.1,152.3,73.5,144.2,73.5z"/>
</g>
</svg>
