<?xml version="1.0" encoding="utf-8"?>
<!-- Generator: Adobe Illustrator 26.5.0, SVG Export Plug-In . SVG Version: 6.00 Build 0)  -->
<svg version="1.1" xmlns="http://www.w3.org/2000/svg" xmlns:xlink="http://www.w3.org/1999/xlink" x="0px" y="0px"
	 viewBox="0 0 250 250" style="enable-background:new 0 0 250 250;" xml:space="preserve">
<style type="text/css">
	.st0{fill:#3683AD;}
	.st1{fill:none;stroke:#000000;stroke-width:3;stroke-miterlimit:10;}
</style>
<g id="Layer_1">
	<g id="Layer_1_00000155124949596874430750000003812161885883569827_">
		<g>
			<circle class="st0" cx="124.57" cy="125" r="124.5"/>
			<path d="M124.57,1c33.12,0,64.26,12.9,87.68,36.32s36.32,54.56,36.32,87.68s-12.9,64.26-36.32,87.68S157.69,249,124.57,249
				s-64.26-12.9-87.68-36.32S0.57,158.12,0.57,125s12.9-64.26,36.32-87.68S91.45,1,124.57,1 M124.57,0c-69.04,0-125,55.96-125,125
				s55.96,125,125,125s125-55.96,125-125S193.61,0,124.57,0L124.57,0z"/>
		</g>
	</g>
</g>
<g id="Layer_2">
	<g>
		<path class="st1" d="M168,125c0,12.71-5.58,24.12-14.42,31.92c-4.9,4.34-10.83,7.55-17.35,9.26c-0.99,0.26-1.99,0.49-3.01,0.66
			c-2.52,0.48-5.12,0.72-7.78,0.72c-1.99,0-3.94-0.13-5.84-0.4c-1.63-0.22-3.23-0.53-4.79-0.94h-0.01
			c-6.59-1.69-12.55-4.93-17.5-9.3c-8.84-7.79-14.42-19.2-14.42-31.92c0-12.24,5.17-23.27,13.44-31.03
			c5.58-5.25,12.57-9,20.36-10.62c2.69-0.56,5.46-0.87,8.31-0.9H125c0.15-0.01,0.29-0.01,0.44-0.01c0.69,0,1.38,0.02,2.07,0.05
			c1.95,0.09,3.87,0.32,5.74,0.66c8.17,1.51,15.51,5.35,21.31,10.81C162.83,101.73,168,112.76,168,125z"/>
		<line class="st1" x1="83.33" y1="125" x2="167.56" y2="125"/>
		<line class="st1" x1="125.44" y1="167.11" x2="125.44" y2="82.89"/>
		<path class="st1" d="M154.56,93.97c-1.8,1.7-3.75,3.24-5.83,4.6c-1.09,0.71-2.21,1.37-3.37,1.98c-5.93,3.17-12.71,4.95-19.91,4.95
			c-7,0-13.61-1.69-19.43-4.69c-0.9-0.45-1.77-0.94-2.62-1.46c-2.54-1.54-4.9-3.34-7.06-5.37c5.58-5.25,12.57-9,20.36-10.62
			c2.69-0.56,5.46-0.87,8.31-0.9H125c0.15-0.01,0.29-0.01,0.44-0.01c0.69,0,1.38,0.02,2.07,0.05c1.95,0.09,3.87,0.32,5.74,0.66
			C141.41,84.67,148.75,88.51,154.56,93.97z"/>
		<path class="st1" d="M136.23,166.17c-0.99,0.26-1.99,0.49-3.01,0.66c-2.52,0.48-5.12,0.72-7.78,0.72c-1.99,0-3.94-0.13-5.84-0.4
			c-1.63-0.22-3.23-0.53-4.79-0.94h-0.01"/>
		<path class="st1" d="M97.3,156.92c2.56-2.27,5.4-4.23,8.46-5.82c5.89-3.08,12.58-4.81,19.68-4.81c7.59,0,14.72,1.99,20.89,5.47
			c2.6,1.46,5.03,3.2,7.25,5.17"/>
		<path class="st1" d="M152.55,125.51c0,9.57-3.16,18.39-8.48,25.5c-1.76,2.34-3.75,4.49-5.94,6.42c-3.94,3.49-8.54,6.25-13.57,8.08
			c-1.23,0.45-2.49,0.84-3.78,1.18c-0.68,0.18-1.37,0.34-2.07,0.48c-1.63-0.22-3.23-0.53-4.79-0.94h-0.01
			c-6.59-1.69-12.55-4.93-17.5-9.3C87.58,149.12,82,137.71,82,125c0-12.24,5.17-23.27,13.44-31.03c5.58-5.25,12.57-9,20.36-10.62
			c3.03,0.41,5.97,1.14,8.76,2.16c5.46,1.99,10.4,5.06,14.55,8.96c1.98,1.84,3.77,3.88,5.36,6.07c4.98,6.89,7.97,15.32,8.07,24.45
			C152.55,125.17,152.55,125.34,152.55,125.51z"/>
		<path class="st1" d="M168,125c0,12.71-5.58,24.12-14.42,31.92c-4.9,4.34-10.83,7.55-17.35,9.26c-0.99,0.26-1.99,0.49-3.01,0.66
			c-0.96-0.17-1.9-0.38-2.83-0.62h-0.01c-1.29-0.33-2.54-0.72-3.78-1.16c-0.39-0.14-0.78-0.29-1.16-0.44
			c-4.65-1.83-8.88-4.45-12.56-7.7c-2.19-1.93-4.18-4.08-5.93-6.42c-5.33-7.1-8.48-15.93-8.48-25.5c0-8.99,2.79-17.33,7.54-24.2
			c1.72-2.48,3.7-4.77,5.9-6.84c3.85-3.63,8.38-6.53,13.37-8.52c0.05-0.02,0.12-0.04,0.17-0.06c2.19-0.86,4.47-1.54,6.82-2.04
			c0.33-0.07,0.66-0.13,0.98-0.19c8.17,1.51,15.51,5.35,21.31,10.81C162.83,101.73,168,112.76,168,125z"/>
	</g>
</g>
<g id="Layer_3">
	<g>
		<path d="M45.52,178.67h-11c2.14-29,6.37-62.85,0-72h11C39.73,117.54,43.35,149.75,45.52,178.67z"/>
		<path d="M48.52,71.67l2,27.18c0,5.49-4.07,10.29-9.54,10.78c-6.23,0.55-11.46-4.34-11.46-10.46l2-27.5c0-1.23,0.6-2.91,1-4v25h2
			l2-25l2.57,25h2l2.43-25l2.2,25.08h2l-0.2-25.08C47.91,68.77,48.52,70.44,48.52,71.67z"/>
	</g>
	<path d="M213.52,180h-11c2.14-29,6.37-62.85,0-72h11C207.73,118.87,211.35,151.08,213.52,180z"/>
	<path d="M199,47"/>
	<path d="M202.52,108L202,56c0,0,13.04,18,11.52,52"/>
</g>
</svg>
