<?xml version="1.0" encoding="utf-8"?>
<!-- Generator: Adobe Illustrator 26.5.0, SVG Export Plug-In . SVG Version: 6.00 Build 0)  -->
<svg version="1.1" id="Layer_1" xmlns="http://www.w3.org/2000/svg" xmlns:xlink="http://www.w3.org/1999/xlink" x="0px" y="0px"
	 viewBox="0 0 250 250" style="enable-background:new 0 0 250 250;" xml:space="preserve">
<style type="text/css">
	.st0{fill:#29ABE2;}
	.st1{fill:#FFFFFF;stroke:#000000;stroke-width:7;stroke-miterlimit:10;}
</style>
<g>
	<circle class="st0" cx="125.57" cy="125" r="124.5"/>
	<path d="M125.57,1c33.12,0,64.26,12.9,87.68,36.32s36.32,54.56,36.32,87.68s-12.9,64.26-36.32,87.68S158.69,249,125.57,249
		s-64.26-12.9-87.68-36.32S1.57,158.12,1.57,125s12.9-64.26,36.32-87.68S92.45,1,125.57,1 M125.57,0c-69.04,0-125,55.96-125,125
		s55.96,125,125,125s125-55.96,125-125S194.61,0,125.57,0L125.57,0z"/>
</g>
<g>
	<path class="st1" d="M109.23,162.5l-0.51-6.6c-1.52-13.7,3.05-28.68,15.73-43.91c11.42-13.45,17.76-23.35,17.76-34.77
		c0-12.94-8.12-21.57-24.11-21.83c-9.14,0-19.29,3.05-25.63,7.87l-6.09-15.99c8.37-6.09,22.84-10.15,36.29-10.15
		c29.19,0,42.38,18.02,42.38,37.31c0,17.26-9.64,29.69-21.83,44.16c-11.17,13.2-15.23,24.36-14.47,37.31l0.25,6.6H109.23z
		 M103.65,198.03c0-9.39,6.34-15.99,15.23-15.99c8.88,0,14.97,6.6,14.97,15.99c0,8.88-5.84,15.73-15.23,15.73
		C109.74,213.76,103.65,206.91,103.65,198.03z"/>
</g>
</svg>
