<?xml version="1.0" encoding="utf-8"?>
<!-- Generator: Adobe Illustrator 26.5.0, SVG Export Plug-In . SVG Version: 6.00 Build 0)  -->
<svg version="1.1" xmlns="http://www.w3.org/2000/svg" xmlns:xlink="http://www.w3.org/1999/xlink" x="0px" y="0px"
	 viewBox="0 0 250 250" style="enable-background:new 0 0 250 250;" xml:space="preserve">
<style type="text/css">
	.st0{fill:#3683AD;}
	.st1{fill:#FFFFFF;stroke:#000000;stroke-width:3;stroke-miterlimit:10;}
	.st2{fill:#FF1D25;}
	.st3{fill:#FF0000;}
	.st4{fill:none;stroke:#000000;stroke-width:2;stroke-miterlimit:10;}
</style>
<g id="Layer_1">
	<g id="Layer_1_00000155124949596874430750000003812161885883569827_">
		<g>
			<circle class="st0" cx="124.57" cy="125" r="124.5"/>
			<path d="M124.57,1c33.12,0,64.26,12.9,87.68,36.32s36.32,54.56,36.32,87.68s-12.9,64.26-36.32,87.68S157.69,249,124.57,249
				s-64.26-12.9-87.68-36.32S0.57,158.12,0.57,125s12.9-64.26,36.32-87.68S91.45,1,124.57,1 M124.57,0c-69.04,0-125,55.96-125,125
				s55.96,125,125,125s125-55.96,125-125S193.61,0,124.57,0L124.57,0z"/>
		</g>
	</g>
</g>
<g id="Layer_2">
	<path class="st1" d="M122.5,173L122.5,173c-9.11,0-16.5-7.39-16.5-16.5v-108c0-9.11,7.39-16.5,16.5-16.5h0
		c9.11,0,16.5,7.39,16.5,16.5v108C139,165.61,131.61,173,122.5,173z"/>
	<path class="st2" d="M122.5,163L122.5,163c-3.04,0-5.5-2.46-5.5-5.5v-64c0-3.04,2.46-5.5,5.5-5.5h0c3.04,0,5.5,2.46,5.5,5.5v64
		C128,160.54,125.54,163,122.5,163z"/>
	<circle class="st1" cx="122.5" cy="176.5" r="22.5"/>
	<circle class="st3" cx="122.5" cy="176.5" r="15"/>
	<line class="st4" x1="138" y1="55" x2="131" y2="55"/>
	<line class="st4" x1="138" y1="67" x2="131" y2="67"/>
	<line class="st4" x1="138" y1="80" x2="131" y2="80"/>
	<line class="st4" x1="137.79" y1="92.6" x2="131" y2="92.6"/>
	<line class="st4" x1="137.85" y1="104.26" x2="131" y2="104.26"/>
	<line class="st4" x1="138" y1="117" x2="131" y2="117"/>
	<line class="st4" x1="138" y1="130" x2="131" y2="130"/>
	<line class="st4" x1="138" y1="142" x2="131" y2="142"/>
</g>
</svg>
